HIERARCHY
ROOT Hips
{
	OFFSET 0.000000 35.082581 0.000000
	CHANNELS 6 Xposition Yposition Zposition Xrotation Yrotation Zrotation 
	JOINT Spine
	{
		OFFSET 0.000000 6.876099 0.125700
		CHANNELS 3 Xrotation Yrotation Zrotation
		JOINT Spine1
		{
			OFFSET 0.000000 5.730043 0.104720
			CHANNELS 3 Xrotation Yrotation Zrotation
			JOINT Spine1_split
			{
				OFFSET 0.000000 5.730043 0.104720
				CHANNELS 3 Xrotation Yrotation Zrotation
				JOINT Spine2
				{
					OFFSET 0.000000 5.730043 0.104720
					CHANNELS 3 Xrotation Yrotation Zrotation
					JOINT Neck
					{
						OFFSET 0.000000 10.314075 0.188496
						CHANNELS 3 Xrotation Yrotation Zrotation
						JOINT Head
						{
							OFFSET 0.000000 7.643700 -2.377400
							CHANNELS 3 Xrotation Yrotation Zrotation
							JOINT HeadTop_End
							{
								OFFSET 0.000000 43.788605 -13.619600
								CHANNELS 3 Xrotation Yrotation Zrotation
								End Site
								{
									OFFSET 0.000000 0.000000 0.000000
								}
							}
						}
					}
					JOINT LeftShoulder
					{
						OFFSET 2.196100 4.412489 0.087492
						CHANNELS 3 Xrotation Yrotation Zrotation
						JOINT LeftShoulder_split
						{
							OFFSET 2.196100 4.412489 0.087492
							CHANNELS 3 Xrotation Yrotation Zrotation
							JOINT LeftArm
							{
								OFFSET 8.771219 -2.981674 -0.026999
								CHANNELS 3 Xrotation Yrotation Zrotation
								JOINT LeftForeArm
								{
									OFFSET 8.512804 0.000000 -0.000000
									CHANNELS 3 Xrotation Yrotation Zrotation
									JOINT LeftHand
									{
										OFFSET 18.484802 0.000000 -0.000000
										CHANNELS 3 Xrotation Yrotation Zrotation
										JOINT LeftHandThumb1
										{
											OFFSET 2.499420 -1.158070 2.653252
											CHANNELS 3 Xrotation Yrotation Zrotation
											JOINT LeftHandThumb2
											{
												OFFSET 2.370079 -1.368366 1.368366
												CHANNELS 3 Xrotation Yrotation Zrotation
												JOINT LeftHandThumb3
												{
													OFFSET 2.676727 -1.545410 1.545409
													CHANNELS 3 Xrotation Yrotation Zrotation
													JOINT LeftHandThumb4
													{
														OFFSET 1.692226 -0.977005 0.977007
														CHANNELS 3 Xrotation Yrotation Zrotation
														End Site
														{
															OFFSET 0.000000 0.000000 0.000000
														}
													}
												}
											}
										}
										JOINT LeftHandIndex1
										{
											OFFSET 7.924831 -0.457527 2.345128
											CHANNELS 3 Xrotation Yrotation Zrotation
											JOINT LeftHandIndex2
											{
												OFFSET 3.643303 0.000000 0.000000
												CHANNELS 3 Xrotation Yrotation Zrotation
												JOINT LeftHandIndex3
												{
													OFFSET 3.810799 0.000000 0.000000
													CHANNELS 3 Xrotation Yrotation Zrotation
													JOINT LeftHandIndex4
													{
														OFFSET 2.403702 0.000000 0.000000
														CHANNELS 3 Xrotation Yrotation Zrotation
														End Site
														{
															OFFSET 0.000000 0.000000 0.000000
														}
													}
												}
											}
										}
										JOINT LeftHandMiddle1
										{
											OFFSET 8.563995 0.000000 -0.000000
											CHANNELS 3 Xrotation Yrotation Zrotation
											JOINT LeftHandMiddle2
											{
												OFFSET 3.861618 0.000000 0.000000
												CHANNELS 3 Xrotation Yrotation Zrotation
												JOINT LeftHandMiddle3
												{
													OFFSET 3.701603 0.000000 0.000000
													CHANNELS 3 Xrotation Yrotation Zrotation
													JOINT LeftHandMiddle4
													{
														OFFSET 2.322544 0.000000 0.000000
														CHANNELS 3 Xrotation Yrotation Zrotation
														End Site
														{
															OFFSET 0.000000 0.000000 0.000000
														}
													}
												}
											}
										}
										JOINT LeftHandRing1
										{
											OFFSET 8.426460 -0.424637 -3.286992
											CHANNELS 3 Xrotation Yrotation Zrotation
											JOINT LeftHandRing2
											{
												OFFSET 3.126408 0.000000 0.000000
												CHANNELS 3 Xrotation Yrotation Zrotation
												JOINT LeftHandRing3
												{
													OFFSET 3.085026 0.000000 0.000000
													CHANNELS 3 Xrotation Yrotation Zrotation
													JOINT LeftHandRing4
													{
														OFFSET 1.644005 0.000000 0.000000
														CHANNELS 3 Xrotation Yrotation Zrotation
														End Site
														{
															OFFSET 0.000000 0.000000 0.000000
														}
													}
												}
											}
										}
									}
								}
							}
						}
					}
					JOINT RightShoulder
					{
						OFFSET -2.196100 4.412496 0.070690
						CHANNELS 3 Xrotation Yrotation Zrotation
						JOINT RightShoulder_split
						{
							OFFSET -2.196100 4.412496 0.070690
							CHANNELS 3 Xrotation Yrotation Zrotation
							JOINT RightArm
							{
								OFFSET -8.771282 -2.981682 -0.094208
								CHANNELS 3 Xrotation Yrotation Zrotation
								JOINT RightForeArm
								{
									OFFSET -8.494598 0.000000 0.000000
									CHANNELS 3 Xrotation Yrotation Zrotation
									JOINT RightHand
									{
										OFFSET -18.483803 0.000000 0.000001
										CHANNELS 3 Xrotation Yrotation Zrotation
										JOINT RightHandThumb1
										{
											OFFSET -2.527351 -1.008072 2.575253
											CHANNELS 3 Xrotation Yrotation Zrotation
											JOINT RightHandThumb2
											{
												OFFSET -2.321518 -1.340328 1.340329
												CHANNELS 3 Xrotation Yrotation Zrotation
												JOINT RightHandThumb3
												{
													OFFSET -2.657753 -1.534454 1.534455
													CHANNELS 3 Xrotation Yrotation Zrotation
													JOINT RightHandThumb4
													{
														OFFSET -1.807510 -1.043568 1.043567
														CHANNELS 3 Xrotation Yrotation Zrotation
														End Site
														{
															OFFSET 0.000000 0.000000 0.000000
														}
													}
												}
											}
										}
										JOINT RightHandIndex1
										{
											OFFSET -8.811420 0.015533 2.887987
											CHANNELS 3 Xrotation Yrotation Zrotation
											JOINT RightHandIndex2
											{
												OFFSET -3.537502 0.000000 0.000000
												CHANNELS 3 Xrotation Yrotation Zrotation
												JOINT RightHandIndex3
												{
													OFFSET -3.356201 0.000000 0.000000
													CHANNELS 3 Xrotation Yrotation Zrotation
													JOINT RightHandIndex4
													{
														OFFSET -1.933098 0.000000 0.000000
														CHANNELS 3 Xrotation Yrotation Zrotation
														End Site
														{
															OFFSET 0.000000 0.000000 0.000000
														}
													}
												}
											}
										}
										JOINT RightHandMiddle1
										{
											OFFSET -8.178135 0.000000 0.000000
											CHANNELS 3 Xrotation Yrotation Zrotation
											JOINT RightHandMiddle2
											{
												OFFSET -3.901302 0.000000 0.000000
												CHANNELS 3 Xrotation Yrotation Zrotation
												JOINT RightHandMiddle3
												{
													OFFSET -3.909599 0.000000 0.000000
													CHANNELS 3 Xrotation Yrotation Zrotation
													JOINT RightHandMiddle4
													{
														OFFSET -2.376003 0.000000 0.000000
														CHANNELS 3 Xrotation Yrotation Zrotation
														End Site
														{
															OFFSET 0.000000 0.000000 0.000000
														}
													}
												}
											}
										}
										JOINT RightHandRing1
										{
											OFFSET -7.559013 0.014137 -2.865403
											CHANNELS 3 Xrotation Yrotation Zrotation
											JOINT RightHandRing2
											{
												OFFSET -3.449306 0.000000 0.000000
												CHANNELS 3 Xrotation Yrotation Zrotation
												JOINT RightHandRing3
												{
													OFFSET -3.362106 0.000000 0.000000
													CHANNELS 3 Xrotation Yrotation Zrotation
													JOINT RightHandRing4
													{
														OFFSET -2.076401 0.000000 0.000000
														CHANNELS 3 Xrotation Yrotation Zrotation
														End Site
														{
															OFFSET 0.000000 0.000000 0.000000
														}
													}
												}
											}
										}
									}
								}
							}
						}
					}
				}
			}
		}
	}
	JOINT LeftUpLeg
	{
		OFFSET 10.205400 -3.823500 0.155100
		CHANNELS 3 Xrotation Yrotation Zrotation
		JOINT LeftLeg
		{
			OFFSET 0.708757 -12.982077 0.567790
			CHANNELS 3 Xrotation Yrotation Zrotation
			JOINT LeftFoot
			{
				OFFSET -0.708756 -10.717838 -2.184338
				CHANNELS 3 Xrotation Yrotation Zrotation
				JOINT LeftToeBase
				{
					OFFSET 0.108149 -7.191104 7.560241
					CHANNELS 3 Xrotation Yrotation Zrotation
					JOINT LeftToe_End
					{
						OFFSET 0.070230 0.081724 4.490308
						CHANNELS 3 Xrotation Yrotation Zrotation
						End Site
						{
							OFFSET 0.000000 0.000000 0.000000
						}
					}
				}
			}
		}
	}
	JOINT RightUpLeg
	{
		OFFSET -10.205400 -3.823500 0.005500
		CHANNELS 3 Xrotation Yrotation Zrotation
		JOINT RightLeg
		{
			OFFSET -0.708756 -12.982134 0.610632
			CHANNELS 3 Xrotation Yrotation Zrotation
			JOINT RightFoot
			{
				OFFSET 0.708754 -10.717769 -1.945823
				CHANNELS 3 Xrotation Yrotation Zrotation
				JOINT RightToeBase
				{
					OFFSET -0.108140 -7.191069 7.372968
					CHANNELS 3 Xrotation Yrotation Zrotation
					JOINT RightToe_End
					{
						OFFSET -0.070227 0.081735 4.479403
						CHANNELS 3 Xrotation Yrotation Zrotation
						End Site
						{
							OFFSET 0.000000 0.000000 0.000000
						}
					}
				}
			}
		}
	}
}
MOTION
Frames: 5
Frame Time: 0.016667
0.862024 33.608932 -0.887793 -0.286897 0.001868 -2.480461 0.563767 -1.394993 0.478648 0.884704 -0.154383 2.637805 0.000000 0.000000 0.000000 0.868037 0.313564 2.550323 1.242741 -0.362780 0.178331 1.579608 0.543348 -5.747759 -0.000000 0.000000 0.000000 0.000008 -0.000067 -0.310606 0.000000 0.000000 0.000000 3.284663 -25.851914 -73.291604 2.210825 -20.459234 0.701229 -31.889778 -2.761242 2.775377 15.772739 2.736663 17.226161 -2.095495 31.047779 -7.361418 -6.566833 4.137881 -2.408513 -0.000002 -0.000000 -0.000004 2.369893 3.655779 -8.470936 -2.148818 2.464576 -18.676459 -1.905134 4.814350 -14.172568 0.000000 0.000001 0.000004 -1.977835 5.701678 -13.647573 0.262673 5.095101 -26.987867 -0.653754 1.140649 -11.787435 0.000001 0.000000 0.000000 -3.264406 8.554506 -11.754365 4.032610 4.051325 -33.265214 2.108314 3.155443 -15.593178 -0.000001 -0.000001 -0.000002 0.000040 0.000005 0.311202 0.000000 0.000000 0.000000 5.327969 -3.221381 75.188765 -0.286927 18.990011 0.139598 -7.879842 -10.226559 5.197507 15.779562 -2.730596 -17.214059 -2.090678 -31.045921 7.368386 -6.565836 -4.138832 2.408551 0.000001 -0.000004 0.000001 2.372143 -3.655205 8.489144 -2.148906 -2.464951 18.674625 -1.906865 -4.812200 14.174157 -0.000001 0.000001 -0.000003 -1.976876 -5.701815 13.665533 0.262169 -5.094032 26.988697 -0.653524 -1.141635 11.787586 0.000000 0.000001 -0.000001 -3.260091 -8.214674 11.646173 4.031943 -4.048819 33.264783 2.108264 -3.155412 15.594693 -0.000000 0.000000 -0.000001 -18.287512 11.376918 14.825197 33.762711 9.210060 -1.436886 -13.589076 5.014389 -9.144612 -0.473466 -0.000555 -0.000002 0.000000 0.000004 0.000000 -1.864300 -3.789041 1.673279 18.283252 -2.367503 4.095192 -15.965864 -0.388816 -2.626112 -0.586247 -0.000189 -0.000007 0.000000 -0.000002 -0.000000 
0.878168 33.623123 -0.945690 -0.839393 -1.540310 -2.596822 0.968612 -1.416228 0.503245 0.988844 -0.196637 2.609325 0.000000 0.000000 0.000000 0.973522 0.242327 2.527079 0.800251 -0.229904 0.204902 1.905007 1.915862 -5.833862 -0.000000 0.000000 0.000000 0.977382 0.015271 -0.358334 0.000000 0.000000 0.000000 4.946907 -23.826292 -70.973220 1.945032 -20.731320 0.649416 -36.056910 -1.976692 -1.857856 15.407459 1.746450 17.954511 -2.095521 31.047779 -7.361441 -6.566789 4.137839 -2.408510 -0.000002 0.000003 -0.000002 1.840537 3.540804 -7.141723 -2.148897 2.464600 -18.676573 -1.905109 4.814340 -14.172570 0.000000 0.000001 0.000000 -2.530935 5.645456 -12.530519 0.262679 5.095126 -26.987838 -0.653745 1.140657 -11.787456 0.000000 -0.000001 -0.000005 -4.418440 8.570466 -10.379986 4.032626 4.051344 -33.265200 2.108331 3.155450 -15.593166 -0.000001 -0.000000 -0.000003 0.066973 0.243731 0.211575 0.000000 0.000000 0.000000 5.191608 -0.509925 74.572859 -0.334887 18.540951 0.163070 -8.606968 -11.105650 5.741624 15.705846 -2.715103 -17.123170 -2.084093 -31.018768 7.320474 -6.508173 -4.256363 2.326861 0.000001 -0.000004 0.000001 2.384403 -3.660978 8.652048 -2.108242 -2.555858 19.242146 -1.875033 -4.904197 14.730952 -0.000000 0.000000 -0.000001 -1.938389 -5.830309 14.312363 0.313798 -5.184780 27.594999 -0.635372 -1.215593 12.220387 -0.000001 -0.000001 0.000006 -3.089750 -8.298430 13.039117 4.090657 -4.145253 34.052950 2.131811 -3.250257 16.222594 0.000001 0.000000 -0.000003 -17.129829 12.687946 15.397350 33.732996 10.622387 -1.323176 -14.116848 3.958202 -9.963462 -0.473485 -0.000531 -0.000012 0.000000 0.000002 -0.000000 -3.418564 -3.746138 1.434531 20.375766 -1.753916 4.176523 -15.236639 1.124154 -2.601646 -0.602946 -0.000177 -0.030283 0.000000 -0.000000 -0.000000 
0.917075 33.632683 -1.077151 -1.536365 -3.459799 -2.906356 2.036569 -1.492835 0.526255 1.261821 -0.310409 2.528742 0.000000 0.000000 0.000000 1.249909 0.054707 2.460124 0.302905 0.013837 0.261822 1.321119 3.847864 -5.697073 -0.000000 0.000000 -0.000000 1.986223 0.122392 -0.120965 0.000000 0.000000 0.000000 8.094350 -24.899076 -68.198530 1.185685 -21.611473 0.480234 -46.872795 -1.105421 -4.618136 14.460933 -0.788090 19.800025 -2.095513 31.047735 -7.361397 -6.566833 4.137870 -2.408519 -0.000001 0.000001 -0.000000 0.457216 3.136085 -3.650724 -2.148843 2.464592 -18.676522 -1.905138 4.814330 -14.172561 -0.000002 0.000001 0.000002 -3.994979 5.400555 -9.596931 0.262659 5.095094 -26.987821 -0.653777 1.140651 -11.787424 0.000000 -0.000000 0.000001 -7.324068 8.382264 -6.964732 4.032612 4.051326 -33.265244 2.108326 3.155457 -15.593173 -0.000000 0.000001 -0.000004 0.253470 0.912368 -0.080442 0.000000 0.000000 0.000000 3.636562 1.596724 74.135228 -0.350379 17.651429 0.182508 -7.428743 -12.080564 7.196917 15.498690 -2.672583 -16.866940 -2.065293 -30.942400 7.184833 -6.345232 -4.590292 2.096275 0.000002 0.000002 -0.000000 2.425216 -3.676035 9.110995 -1.989626 -2.809133 20.839816 -1.781194 -5.160887 16.298361 -0.000000 -0.000000 0.000001 -1.823639 -6.185064 16.114510 0.463908 -5.436909 29.301737 -0.580737 -1.424448 13.448715 -0.000001 -0.000000 0.000002 -2.610783 -8.509705 16.860704 4.262502 -4.409916 36.248183 2.204039 -3.515785 17.990015 -0.000001 0.000000 0.000001 -16.491140 15.805418 16.764686 33.874255 10.451553 -1.246600 -14.836153 2.828117 -10.270537 -0.473466 -0.000553 -0.000002 0.000000 0.000000 -0.000000 -6.074705 -3.753280 1.133680 24.145197 -0.538535 4.385692 -14.116077 2.323314 -2.496288 -1.694126 0.008571 -0.464539 0.000000 -0.000000 -0.000000 
0.958395 33.615196 -1.254061 -2.264080 -6.143648 -3.372163 3.548916 -1.621751 0.547154 1.649033 -0.475934 2.403264 0.000000 0.000000 0.000000 1.641466 -0.210256 2.353477 -0.093891 0.283679 0.336394 0.006975 6.702319 -5.432572 0.000000 0.000000 -0.000000 3.031710 0.333328 0.350278 0.000000 0.000000 0.000000 12.040972 -27.172065 -65.359692 -0.019236 -23.409182 0.139583 -61.652812 0.361638 -5.512451 13.147949 -4.206735 22.246780 -2.095498 31.047786 -7.361514 -6.566835 4.137875 -2.408511 -0.000001 0.000001 -0.000002 -1.447948 2.315615 1.244511 -2.148837 2.464611 -18.676509 -1.905114 4.814310 -14.172589 0.000002 -0.000001 -0.000001 -6.062563 4.814490 -5.487613 0.262656 5.095136 -26.987846 -0.653748 1.140652 -11.787449 0.000001 -0.000000 -0.000004 -11.103938 7.652446 -2.608548 4.032586 4.051322 -33.265227 2.108321 3.155459 -15.593155 0.000001 0.000002 0.000002 0.541582 1.910659 -0.510275 0.000000 0.000000 0.000000 1.015079 3.562563 73.753687 -2.144234 16.565219 0.812411 -3.019899 -13.043818 9.267840 15.179368 -2.609883 -16.470084 -2.035362 -30.824135 6.974182 -6.093339 -5.113511 1.739113 -0.000000 -0.000000 0.000001 2.488012 -3.698792 9.820460 -1.794563 -3.192412 23.310893 -1.623943 -5.551231 18.722882 -0.000000 0.000001 -0.000003 -1.627341 -6.716567 18.865544 0.709976 -5.816761 31.942370 -0.486944 -1.747725 15.366724 -0.000003 0.000000 -0.000001 -1.876411 -8.740765 22.578570 4.547650 -4.801535 39.597021 2.333561 -3.922254 20.723089 0.000000 0.000000 -0.000001 -16.215101 20.150822 18.760853 34.155017 8.304672 -1.246738 -15.801231 3.012413 -10.060588 -0.473477 -0.000516 -0.000013 0.000000 0.000001 0.000000 -9.513415 -3.651384 0.217107 28.376420 1.602406 4.736956 -13.086362 3.165040 -0.650961 -1.784403 0.031236 -1.465776 0.000000 0.000000 0.000000 
0.990072 33.564751 -1.445830 -2.868662 -9.206794 -3.957521 5.286626 -1.802962 0.554007 2.096228 -0.673417 2.240413 0.000000 0.000000 0.000000 2.092914 -0.513344 2.211525 -0.450333 0.594607 0.431790 -1.746710 10.004500 -5.052607 0.000000 -0.000000 -0.000000 4.117136 0.657549 1.005807 0.000000 0.000000 0.000000 15.953526 -29.708229 -62.779199 -1.655358 -26.434859 -0.428593 -77.762619 2.146584 -4.129075 11.678155 -7.865420 24.808953 -2.095554 31.047786 -7.361426 -6.566816 4.137857 -2.408494 -0.000002 0.000001 -0.000000 -3.518859 1.027692 6.783534 -2.148860 2.464597 -18.676567 -1.905084 4.814354 -14.172550 -0.000001 -0.000001 0.000000 -8.394449 3.799455 -0.851714 0.262622 5.095064 -26.987829 -0.653761 1.140670 -11.787424 0.000001 0.000002 -0.000003 -14.827294 6.385099 1.595964 4.032641 4.051326 -33.265244 2.108274 3.155418 -15.593161 0.000001 -0.000003 0.000001 0.913446 3.143519 -1.042091 0.000000 0.000000 0.000000 -2.332371 5.204009 73.608812 -0.324174 15.628851 0.222825 -1.025622 -13.925719 11.818735 14.769195 -2.534297 -15.957163 -1.995189 -30.671613 6.701141 -5.768917 -5.799338 1.278709 0.000001 -0.000000 0.000001 2.568316 -3.727038 10.734759 -1.522812 -3.671182 26.499339 -1.399816 -6.041949 21.851785 -0.000000 0.000002 0.000001 -1.342283 -7.372524 22.360378 1.051489 -6.287623 35.350669 -0.349252 -2.163575 17.869667 0.000002 0.000000 0.000000 -0.955567 -8.884944 29.655582 4.948557 -5.274749 43.847158 2.531940 -4.437247 24.248678 -0.000000 -0.000000 0.000000 -16.579888 25.010829 21.400996 34.724528 5.721124 -1.295094 -16.930215 3.277032 -9.848049 -0.473483 -0.000509 -0.000014 0.000000 -0.000004 -0.000000 -12.768244 -3.574118 -0.535864 31.270208 3.943815 4.921407 -11.765040 4.545434 0.961118 -1.559667 0.021069 -1.204165 0.000000 0.000000 -0.000000 
